<?xml version="1.0" standalone="no"?>
<!DOCTYPE svg PUBLIC "-//W3C//DTD SVG 20010904//EN"
 "http://www.w3.org/TR/2001/REC-SVG-20010904/DTD/svg10.dtd">
<svg version="1.0" xmlns="http://www.w3.org/2000/svg"
 width="388.000000pt" height="388.000000pt" viewBox="0 0 388.000000 388.000000"
 preserveAspectRatio="xMidYMid meet">
<metadata>
Created by potrace 1.11, written by Peter Selinger 2001-2013
</metadata>
<g transform="translate(0.000000,388.000000) scale(0.100000,-0.100000)"
fill="#000000" stroke="none">
<path d="M2680 3265 c-23 -43 -24 -43 -51 -30 l-27 14 -104 -182 -104 -182
-674 -5 c-518 -4 -684 -9 -715 -19 -132 -43 -268 -157 -323 -272 -152 -312
-17 -650 312 -777 30 -11 95 -17 248 -21 203 -6 207 -6 233 -31 50 -47 69 -97
69 -185 1 -67 -3 -87 -24 -124 -14 -24 -38 -54 -53 -65 -28 -21 -37 -21 -703
-24 l-675 -3 6 -22 c19 -61 82 -212 123 -290 l46 -88 625 3 626 3 58 24 c178
71 310 228 358 424 l18 72 0 -272 1 -273 195 0 195 0 0 270 0 271 76 -3 75 -3
122 -267 122 -268 209 0 c162 0 207 3 203 13 -3 6 -64 142 -137 300 -72 159
-130 290 -128 291 2 2 30 18 63 36 33 18 96 70 141 115 143 143 213 329 201
530 -14 225 -142 439 -331 552 l-64 38 58 100 c61 105 61 102 14 131 -17 10
-17 12 4 46 12 19 22 40 22 46 0 7 -188 120 -281 168 -3 1 -16 -17 -29 -41z
m83 -476 c47 -13 106 -63 123 -106 59 -139 -71 -292 -214 -253 -51 13 -110 63
-128 107 -41 97 11 212 112 248 48 17 59 18 107 4z m-603 -316 c0 -5 -20 -42
-44 -83 l-44 -75 36 -22 c21 -13 41 -24 46 -26 4 -1 -6 -26 -23 -55 -17 -29
-31 -57 -31 -62 0 -4 50 -36 111 -71 120 -67 112 -67 146 -4 30 57 32 58 78
30 33 -19 45 -22 52 -12 11 14 99 173 128 232 l20 40 75 2 c41 1 84 3 94 5 15
2 27 -11 50 -56 27 -52 31 -69 30 -135 -1 -90 -18 -134 -77 -198 -66 -72 -121
-93 -244 -93 -96 0 -103 1 -103 20 0 19 -7 20 -230 20 -223 0 -230 -1 -230
-20 0 -15 -7 -20 -25 -20 l-25 0 -1 -112 0 -113 -18 73 c-49 200 -179 353
-360 423 -49 20 -82 23 -263 28 l-207 6 -31 30 c-76 73 -58 201 34 241 25 10
137 13 544 14 281 0 512 -3 512 -7z"/>
<path d="M2640 2741 c-38 -20 -80 -88 -80 -131 0 -43 42 -111 80 -131 135 -73
279 65 210 200 -38 75 -133 103 -210 62z m141 -70 c20 -20 29 -39 29 -61 0
-45 -47 -90 -94 -90 -53 0 -91 37 -91 90 0 84 95 121 156 61z"/>
</g>
</svg>
